<?xml version="1.0" encoding="utf-8"?>
<svg version="1.1" xmlns:xlink="http://www.w3.org/1999/xlink" width="51px" height="40px" xmlns="http://www.w3.org/2000/svg">
  <defs>
    <mask fill="white" id="clip9">
      <path d="M 23.7847533632287 30  L 25.385650224215247 30  L 28.701793721973093 26.704545454545453  L 24.356502242152466 22.386363636363633  L 21.04035874439462 25.681818181818183  L 21.04035874439462 27.272727272727273  L 23.7847533632287 27.272727272727273  L 23.7847533632287 30  Z M 37.93553811659193 10.482954545454547  C 38.25952914798207 10.160984848484844  38.26905829596413 9.848484848484844  37.96412556053812 9.545454545454547  C 37.65919282511211 9.242424242424239  37.34473094170404 9.251893939393936  37.0207399103139 9.573863636363637  L 27.015134529147982 19.517045454545453  C 26.69114349775785 19.839015151515152  26.681614349775785 20.15151515151515  26.986547085201792 20.454545454545453  C 27.291479820627806 20.757575757575758  27.605941704035878 20.748106060606055  27.92993273542601 20.426136363636367  L 37.93553811659193 10.482954545454547  Z M 39.67937219730942 25.596590909090907  C 40.060538116591935 25.748106060606055  40.25112107623318 26.022727272727273  40.25112107623318 26.420454545454547  L 40.25112107623318 31.818181818181817  C 40.25112107623318 34.071969696969695  39.44590807174888 35.99905303030303  37.835482062780265 37.59943181818181  C 36.22505605381166 39.19981060606061  34.285874439461885 40  32.017937219730946 40  L 8.233183856502242 40  C 5.965246636771301 40  4.026065022421525 39.19981060606061  2.415639013452915 37.59943181818181  C 0.8052130044843049 35.99905303030303  0 34.071969696969695  0 31.818181818181817  L 0 8.181818181818183  C 0 5.928030303030298  0.8052130044843049 4.000946969696968  2.415639013452915 2.4005681818181834  C 4.026065022421525 0.80018939393939  5.965246636771301 0  8.233183856502242 0  L 32.017937219730946 0  C 33.21860986547085 0  34.333520179372194 0.2367424242424221  35.36266816143498 0.7102272727272707  C 35.64854260089686 0.8428030303030276  35.820067264573986 1.0606060606060597  35.877242152466366 1.3636363636363624  C 35.93441704035874 1.6856060606060597  35.84865470852018 1.9602272727272707  35.619955156950674 2.1875  L 34.21917040358744 3.579545454545454  C 33.952354260089685 3.844696969696968  33.64742152466368 3.920454545454546  33.30437219730942 3.8068181818181834  C 32.86603139013453 3.6931818181818166  32.437219730941706 3.6363636363636376  32.017937219730946 4  L 8.233183856502242 4  C 6.975336322869955 3.6363636363636376  5.898542600896862 4.08143939393939  5.00280269058296 4.971590909090908  C 4.107062780269059 5.861742424242422  3.6591928251121075 6.931818181818183  4 8.181818181818183  L 4 31.818181818181817  C 3.6591928251121075 33.06818181818181  4.107062780269059 34.13825757575757  5.00280269058296 35.02840909090909  C 5.898542600896862 35.91856060606061  6.975336322869955 36.36363636363636  8.233183856502242 36  L 32.017937219730946 36  C 33.275784753363226 36.36363636363636  34.35257847533632 35.91856060606061  35.24831838565022 35.02840909090909  C 36.14405829596413 34.13825757575757  36.591928251121075 33.06818181818181  36.591928251121075 31.818181818181817  L 36.591928251121075 28.238636363636367  C 36.591928251121075 27.99242424242424  36.67769058295964 27.784090909090907  36.849215246636774 27.613636363636367  L 38.678811659192824 25.795454545454547  C 38.96468609865471 25.511363636363633  39.29820627802691 25.445075757575758  39.67937219730942 25.596590909090907  Z M 18.295964125560538 24.545454545454547  L 37.506726457399104 5.454545454545454  L 45.73991031390135 13.636363636363637  L 26.529147982062778 32.72727272727273  L 18.295964125560538 32.72727272727273  L 18.295964125560538 24.545454545454547  Z M 51 7.272727272727271  C 51 8.030303030303028  50.733183856502244 8.674242424242422  50.199551569506724 9.204545454545453  L 47.5695067264574 11.818181818181817  L 39.336322869955154 3.6363636363636376  L 41.96636771300449 1.0227272727272707  C 42.5 0.49242424242423866  43.14798206278027 0.2272727272727293  43.91031390134529 0.2272727272727293  C 44.672645739910315 0.2272727272727293  45.32062780269059 0.49242424242423866  45.8542600896861 1.0227272727272707  L 50.199551569506724 5.340909090909092  C 50.733183856502244 5.871212121212115  51 6.515151515151514  51 7.272727272727271  Z " fill-rule="evenodd" />
    </mask>
  </defs>
  <g transform="matrix(1 0 0 1 -380 -1860 )">
    <path d="M 23.7847533632287 30  L 25.385650224215247 30  L 28.701793721973093 26.704545454545453  L 24.356502242152466 22.386363636363633  L 21.04035874439462 25.681818181818183  L 21.04035874439462 27.272727272727273  L 23.7847533632287 27.272727272727273  L 23.7847533632287 30  Z M 37.93553811659193 10.482954545454547  C 38.25952914798207 10.160984848484844  38.26905829596413 9.848484848484844  37.96412556053812 9.545454545454547  C 37.65919282511211 9.242424242424239  37.34473094170404 9.251893939393936  37.0207399103139 9.573863636363637  L 27.015134529147982 19.517045454545453  C 26.69114349775785 19.839015151515152  26.681614349775785 20.15151515151515  26.986547085201792 20.454545454545453  C 27.291479820627806 20.757575757575758  27.605941704035878 20.748106060606055  27.92993273542601 20.426136363636367  L 37.93553811659193 10.482954545454547  Z M 39.67937219730942 25.596590909090907  C 40.060538116591935 25.748106060606055  40.25112107623318 26.022727272727273  40.25112107623318 26.420454545454547  L 40.25112107623318 31.818181818181817  C 40.25112107623318 34.071969696969695  39.44590807174888 35.99905303030303  37.835482062780265 37.59943181818181  C 36.22505605381166 39.19981060606061  34.285874439461885 40  32.017937219730946 40  L 8.233183856502242 40  C 5.965246636771301 40  4.026065022421525 39.19981060606061  2.415639013452915 37.59943181818181  C 0.8052130044843049 35.99905303030303  0 34.071969696969695  0 31.818181818181817  L 0 8.181818181818183  C 0 5.928030303030298  0.8052130044843049 4.000946969696968  2.415639013452915 2.4005681818181834  C 4.026065022421525 0.80018939393939  5.965246636771301 0  8.233183856502242 0  L 32.017937219730946 0  C 33.21860986547085 0  34.333520179372194 0.2367424242424221  35.36266816143498 0.7102272727272707  C 35.64854260089686 0.8428030303030276  35.820067264573986 1.0606060606060597  35.877242152466366 1.3636363636363624  C 35.93441704035874 1.6856060606060597  35.84865470852018 1.9602272727272707  35.619955156950674 2.1875  L 34.21917040358744 3.579545454545454  C 33.952354260089685 3.844696969696968  33.64742152466368 3.920454545454546  33.30437219730942 3.8068181818181834  C 32.86603139013453 3.6931818181818166  32.437219730941706 3.6363636363636376  32.017937219730946 4  L 8.233183856502242 4  C 6.975336322869955 3.6363636363636376  5.898542600896862 4.08143939393939  5.00280269058296 4.971590909090908  C 4.107062780269059 5.861742424242422  3.6591928251121075 6.931818181818183  4 8.181818181818183  L 4 31.818181818181817  C 3.6591928251121075 33.06818181818181  4.107062780269059 34.13825757575757  5.00280269058296 35.02840909090909  C 5.898542600896862 35.91856060606061  6.975336322869955 36.36363636363636  8.233183856502242 36  L 32.017937219730946 36  C 33.275784753363226 36.36363636363636  34.35257847533632 35.91856060606061  35.24831838565022 35.02840909090909  C 36.14405829596413 34.13825757575757  36.591928251121075 33.06818181818181  36.591928251121075 31.818181818181817  L 36.591928251121075 28.238636363636367  C 36.591928251121075 27.99242424242424  36.67769058295964 27.784090909090907  36.849215246636774 27.613636363636367  L 38.678811659192824 25.795454545454547  C 38.96468609865471 25.511363636363633  39.29820627802691 25.445075757575758  39.67937219730942 25.596590909090907  Z M 18.295964125560538 24.545454545454547  L 37.506726457399104 5.454545454545454  L 45.73991031390135 13.636363636363637  L 26.529147982062778 32.72727272727273  L 18.295964125560538 32.72727272727273  L 18.295964125560538 24.545454545454547  Z M 51 7.272727272727271  C 51 8.030303030303028  50.733183856502244 8.674242424242422  50.199551569506724 9.204545454545453  L 47.5695067264574 11.818181818181817  L 39.336322869955154 3.6363636363636376  L 41.96636771300449 1.0227272727272707  C 42.5 0.49242424242423866  43.14798206278027 0.2272727272727293  43.91031390134529 0.2272727272727293  C 44.672645739910315 0.2272727272727293  45.32062780269059 0.49242424242423866  45.8542600896861 1.0227272727272707  L 50.199551569506724 5.340909090909092  C 50.733183856502244 5.871212121212115  51 6.515151515151514  51 7.272727272727271  Z " fill-rule="nonzero" fill="#fff2ee" stroke="none" fill-opacity="0" transform="matrix(1 0 0 1 380 1860 )" />
    <path d="M 23.7847533632287 30  L 25.385650224215247 30  L 28.701793721973093 26.704545454545453  L 24.356502242152466 22.386363636363633  L 21.04035874439462 25.681818181818183  L 21.04035874439462 27.272727272727273  L 23.7847533632287 27.272727272727273  L 23.7847533632287 30  Z " stroke-width="2" stroke="#ffffff" fill="none" transform="matrix(1 0 0 1 380 1860 )" mask="url(#clip9)" />
    <path d="M 37.93553811659193 10.482954545454547  C 38.25952914798207 10.160984848484844  38.26905829596413 9.848484848484844  37.96412556053812 9.545454545454547  C 37.65919282511211 9.242424242424239  37.34473094170404 9.251893939393936  37.0207399103139 9.573863636363637  L 27.015134529147982 19.517045454545453  C 26.69114349775785 19.839015151515152  26.681614349775785 20.15151515151515  26.986547085201792 20.454545454545453  C 27.291479820627806 20.757575757575758  27.605941704035878 20.748106060606055  27.92993273542601 20.426136363636367  L 37.93553811659193 10.482954545454547  Z " stroke-width="2" stroke="#ffffff" fill="none" transform="matrix(1 0 0 1 380 1860 )" mask="url(#clip9)" />
    <path d="M 39.67937219730942 25.596590909090907  C 40.060538116591935 25.748106060606055  40.25112107623318 26.022727272727273  40.25112107623318 26.420454545454547  L 40.25112107623318 31.818181818181817  C 40.25112107623318 34.071969696969695  39.44590807174888 35.99905303030303  37.835482062780265 37.59943181818181  C 36.22505605381166 39.19981060606061  34.285874439461885 40  32.017937219730946 40  L 8.233183856502242 40  C 5.965246636771301 40  4.026065022421525 39.19981060606061  2.415639013452915 37.59943181818181  C 0.8052130044843049 35.99905303030303  0 34.071969696969695  0 31.818181818181817  L 0 8.181818181818183  C 0 5.928030303030298  0.8052130044843049 4.000946969696968  2.415639013452915 2.4005681818181834  C 4.026065022421525 0.80018939393939  5.965246636771301 0  8.233183856502242 0  L 32.017937219730946 0  C 33.21860986547085 0  34.333520179372194 0.2367424242424221  35.36266816143498 0.7102272727272707  C 35.64854260089686 0.8428030303030276  35.820067264573986 1.0606060606060597  35.877242152466366 1.3636363636363624  C 35.93441704035874 1.6856060606060597  35.84865470852018 1.9602272727272707  35.619955156950674 2.1875  L 34.21917040358744 3.579545454545454  C 33.952354260089685 3.844696969696968  33.64742152466368 3.920454545454546  33.30437219730942 3.8068181818181834  C 32.86603139013453 3.6931818181818166  32.437219730941706 3.6363636363636376  32.017937219730946 4  L 8.233183856502242 4  C 6.975336322869955 3.6363636363636376  5.898542600896862 4.08143939393939  5.00280269058296 4.971590909090908  C 4.107062780269059 5.861742424242422  3.6591928251121075 6.931818181818183  4 8.181818181818183  L 4 31.818181818181817  C 3.6591928251121075 33.06818181818181  4.107062780269059 34.13825757575757  5.00280269058296 35.02840909090909  C 5.898542600896862 35.91856060606061  6.975336322869955 36.36363636363636  8.233183856502242 36  L 32.017937219730946 36  C 33.275784753363226 36.36363636363636  34.35257847533632 35.91856060606061  35.24831838565022 35.02840909090909  C 36.14405829596413 34.13825757575757  36.591928251121075 33.06818181818181  36.591928251121075 31.818181818181817  L 36.591928251121075 28.238636363636367  C 36.591928251121075 27.99242424242424  36.67769058295964 27.784090909090907  36.849215246636774 27.613636363636367  L 38.678811659192824 25.795454545454547  C 38.96468609865471 25.511363636363633  39.29820627802691 25.445075757575758  39.67937219730942 25.596590909090907  Z " stroke-width="2" stroke="#ffffff" fill="none" transform="matrix(1 0 0 1 380 1860 )" mask="url(#clip9)" />
    <path d="M 18.295964125560538 24.545454545454547  L 37.506726457399104 5.454545454545454  L 45.73991031390135 13.636363636363637  L 26.529147982062778 32.72727272727273  L 18.295964125560538 32.72727272727273  L 18.295964125560538 24.545454545454547  Z " stroke-width="2" stroke="#ffffff" fill="none" transform="matrix(1 0 0 1 380 1860 )" mask="url(#clip9)" />
    <path d="M 51 7.272727272727271  C 51 8.030303030303028  50.733183856502244 8.674242424242422  50.199551569506724 9.204545454545453  L 47.5695067264574 11.818181818181817  L 39.336322869955154 3.6363636363636376  L 41.96636771300449 1.0227272727272707  C 42.5 0.49242424242423866  43.14798206278027 0.2272727272727293  43.91031390134529 0.2272727272727293  C 44.672645739910315 0.2272727272727293  45.32062780269059 0.49242424242423866  45.8542600896861 1.0227272727272707  L 50.199551569506724 5.340909090909092  C 50.733183856502244 5.871212121212115  51 6.515151515151514  51 7.272727272727271  Z " stroke-width="2" stroke="#ffffff" fill="none" transform="matrix(1 0 0 1 380 1860 )" mask="url(#clip9)" />
  </g>
</svg>