<?xml version="1.0" encoding="utf-8"?>
<svg version="1.1" xmlns:xlink="http://www.w3.org/1999/xlink" width="43px" height="40px" xmlns="http://www.w3.org/2000/svg">
  <defs>
    <mask fill="white" id="clip10">
      <path d="M 40.80612244897959 7.994791666666665  C 41.45998399359745 8.255208333333336  41.967587034813924 8.628472222222218  42.32893157262905 9.114583333333336  C 43.0172068827531 10.104166666666664  43.172068827531014 11.223958333333336  42.793517406962785 12.473958333333336  L 35.69567827130852 36.067708333333336  C 35.3687474989996 37.17881944444444  34.71058423369348 38.111979166666664  33.72118847539016 38.8671875  C 32.73179271708684 39.622395833333336  31.677871148459385 40  30.559423769507806 40  L 6.736494597839136 40  C 5.41156462585034 40  4.133953581432574 39.53559027777778  2.9036614645858343 38.606770833333336  C 1.6733693477390958 37.677951388888886  0.8173269307723091 36.536458333333336  0.3355342136854742 35.182291666666664  C -0.07743097238895558 34.01909722222222  -0.09463785514205683 32.916666666666664  0.28391356542617047 31.875  C 0.28391356542617047 31.805555555555554  0.3097238895558223 31.571180555555554  0.36134453781512604 31.171875  C 0.4129651860744297 30.772569444444443  0.4473789515806323 30.45138888888889  0.4645858343337335 30.208333333333336  C 0.48179271708683474 30.069444444444446  0.4559823929571829 29.8828125  0.3871548619447779 29.6484375  C 0.318327330932373 29.4140625  0.29251700680272114 29.24479166666667  0.3097238895558223 29.140625  C 0.3441376550620248 28.94965277777778  0.4129651860744297 28.767361111111107  0.5162064825930373 28.59375  C 0.6194477791116446 28.420138888888886  0.7614045618247298 28.21614583333333  0.942076830732293 27.98177083333333  C 1.122749099639856 27.74739583333333  1.2647058823529411 27.54340277777778  1.3679471788715485 27.36979166666667  C 1.7637054821928775 26.710069444444436  2.150860344137655 25.915798611111107  2.5294117647058822 24.98697916666667  C 2.90796318527411 24.05815972222222  3.1660664265706284 23.263888888888886  3.303721488595438 22.60416666666667  C 3.3553421368547416 22.430555555555554  3.3596438575430176 22.170138888888886  3.316626650660264 21.82291666666667  C 3.2736094437775116 21.475694444444446  3.2693077230892356 21.232638888888886  3.303721488595438 21.09375  C 3.3553421368547416 20.90277777777778  3.501600640256103 20.65972222222222  3.74249699879952 20.36458333333333  C 3.983393357342937 20.069444444444446  4.129651860744298 19.869791666666664  4.181272509003602 19.765625  C 4.5426170468187275 19.140625  4.903961584633853 18.34201388888889  5.26530612244898 17.369791666666664  C 5.626650660264105 16.397569444444443  5.841736694677872 15.616319444444443  5.910564225690276 15.026041666666664  C 5.927771108443377 14.869791666666664  5.906262505002001 14.59201388888889  5.846038415366147 14.192708333333336  C 5.785814325730293 13.793402777777777  5.790116046418568 13.550347222222218  5.858943577430972 13.463541666666664  C 5.927771108443377 13.237847222222218  6.117046818727491 12.973090277777771  6.426770708283313 12.669270833333336  C 6.736494597839136 12.36545138888889  6.92577030812325 12.17013888888889  6.994597839135654 12.083333333333336  C 7.321528611444578 11.631944444444443  7.68717486994798 10.8984375  8.09153661464586 9.8828125  C 8.495898359343737 8.8671875  8.73249299719888 8.02951388888889  8.801320528211285 7.369791666666665  C 8.818527410964386 7.230902777777772  8.792717086834735 7.009548611111107  8.723889555822328 6.705729166666665  C 8.655062024809924 6.401909722222219  8.637855142056823 6.171875  8.672268907563025 6.015625  C 8.706682673069228 5.876736111111107  8.784113645458184 5.720486111111107  8.90456182472989 5.546875  C 9.0250100040016 5.373263888888888  9.179871948779512 5.173611111111107  9.369147659063625 4.947916666666665  C 9.55842336934774 4.722222222222219  9.7046818727491 4.539930555555554  9.807923169267706 4.401041666666665  C 9.945578231292519 4.192708333333335  10.087535014005603 3.9279513888888884  10.233793517406962 3.606770833333335  C 10.380052020808323 3.2855902777777724  10.509103641456583 2.981770833333335  10.62094837935174 2.6953125  C 10.7327931172469 2.408854166666665  10.87044817927171 2.096354166666665  11.03391356542617 1.7578125  C 11.197378951580633 1.4192708333333348  11.36514605842337 1.1414930555555536  11.53721488595438 0.9244791666666652  C 11.709283713485396 0.7074652777777724  11.937274909963987 0.5034722222222188  12.221188475390157 0.3125  C 12.505102040816329 0.12152777777777235  12.81482593037215 0.021701388888888395  13.150360144057624 0.013020833333334814  C 13.485894357743097 0.00434027777777235  13.894557823129253 0.052083333333334814  14.376350540216086 0.15625  L 14.350540216086436 0.234375  C 15.004401760704281 0.078125  15.443177270908365 0  15.66686674669868 0  L 35.308523409363744 0  C 36.58183273309324 0  37.56262505002001 0.48611111111110716  38.25090036014406 1.4583333333333348  C 38.93917567026811 2.4305555555555536  39.09403761504602 3.5590277777777724  38.71548619447779 4.84375  L 31.64345738295318 28.4375  C 31.024009603841534 30.503472222222218  30.40886354541817 31.8359375  29.798019207683076 32.434895833333336  C 29.187174869947984 33.033854166666664  28.081632653061224 33.333333333333336  26.481392557022808 33  L 4.052220888355342 33  C 3.587635054021609 33.333333333333336  3.2607042817126852 33.463541666666664  3.071428571428571 33.723958333333336  C 2.882152861144458 34.001736111111114  2.8735494197679072 34.375  3.0456182472989193 34.84375  C 3.458583433373349 36.05902777777778  4.697478991596639 36.666666666666664  6.762304921968787 36  L 30.585234093637453 36  C 31.084233693477394 36.666666666666664  31.566026410564227 36.53211805555556  32.03061224489796 36.263020833333336  C 32.49519807923169 35.993923611111114  32.79631852741097 35.63368055555556  32.93397358943577 35.182291666666664  L 40.67707082833133 9.479166666666664  C 40.79751900760304 9.097222222222218  40.840536214485795 8.602430555555554  40.80612244897959 7.994791666666665  Z M 15.40876350540216 7.5  L 14.866746698679473 9.166666666666664  C 14.797919167667066 9.392361111111107  14.815126050420169 9.587673611111107  14.918367346938775 9.752604166666664  C 15.021608643457382 9.917534722222218  15.193677470988398 10  15.434573829531812 10  L 31.127250900360146 10  C 31.35094037615046 10  31.570328131252502 9.917534722222218  31.785414165666264 9.752604166666664  C 32.00050020008003 9.587673611111107  32.14245698279312 9.392361111111107  32.21128451380552 9.166666666666664  L 32.75330132052821 7.5  C 32.82212885154062 7.274305555555554  32.80492196878752 7.078993055555554  32.70168067226891 6.9140625  C 32.5984393757503 6.749131944444442  32.426370548219296 6.666666666666665  32.18547418967587 7  L 16.492797118847538 7  C 16.26910764305722 6.666666666666665  16.04971988795518 6.749131944444442  15.834633853541416 6.9140625  C 15.619547819127652 7.078993055555554  15.477591036414568 7.274305555555554  15.40876350540216 7.5  Z M 13.266506602641057 14.166666666666664  L 12.724489795918368 15.833333333333336  C 12.655662264905963 16.05902777777778  12.672869147659064 16.25434027777778  12.776110444177672 16.419270833333336  C 12.87935174069628 16.58420138888889  13.05142056822729 16.666666666666664  13.29231692677071 17  L 28.984993997599037 17  C 29.208683473389357 16.666666666666664  29.4280712284914 16.58420138888889  29.64315726290516 16.419270833333336  C 29.858243297318932 16.25434027777778  30.000200080032016 16.05902777777778  30.06902761104442 15.833333333333336  L 30.611044417767104 14.166666666666664  C 30.679871948779514 13.940972222222218  30.66266506602641 13.745659722222218  30.559423769507806 13.580729166666664  C 30.456182472989195 13.41579861111111  30.284113645458188 13.333333333333336  30.043217286914764 14  L 14.350540216086436 14  C 14.12685074029612 13.333333333333336  13.90746298519408 13.41579861111111  13.692376950780313 13.580729166666664  C 13.477290916366549 13.745659722222218  13.335334133653463 13.940972222222218  13.266506602641057 14.166666666666664  Z " fill-rule="evenodd" />
    </mask>
  </defs>
  <g transform="matrix(1 0 0 1 -659 -1860 )">
    <path d="M 40.80612244897959 7.994791666666665  C 41.45998399359745 8.255208333333336  41.967587034813924 8.628472222222218  42.32893157262905 9.114583333333336  C 43.0172068827531 10.104166666666664  43.172068827531014 11.223958333333336  42.793517406962785 12.473958333333336  L 35.69567827130852 36.067708333333336  C 35.3687474989996 37.17881944444444  34.71058423369348 38.111979166666664  33.72118847539016 38.8671875  C 32.73179271708684 39.622395833333336  31.677871148459385 40  30.559423769507806 40  L 6.736494597839136 40  C 5.41156462585034 40  4.133953581432574 39.53559027777778  2.9036614645858343 38.606770833333336  C 1.6733693477390958 37.677951388888886  0.8173269307723091 36.536458333333336  0.3355342136854742 35.182291666666664  C -0.07743097238895558 34.01909722222222  -0.09463785514205683 32.916666666666664  0.28391356542617047 31.875  C 0.28391356542617047 31.805555555555554  0.3097238895558223 31.571180555555554  0.36134453781512604 31.171875  C 0.4129651860744297 30.772569444444443  0.4473789515806323 30.45138888888889  0.4645858343337335 30.208333333333336  C 0.48179271708683474 30.069444444444446  0.4559823929571829 29.8828125  0.3871548619447779 29.6484375  C 0.318327330932373 29.4140625  0.29251700680272114 29.24479166666667  0.3097238895558223 29.140625  C 0.3441376550620248 28.94965277777778  0.4129651860744297 28.767361111111107  0.5162064825930373 28.59375  C 0.6194477791116446 28.420138888888886  0.7614045618247298 28.21614583333333  0.942076830732293 27.98177083333333  C 1.122749099639856 27.74739583333333  1.2647058823529411 27.54340277777778  1.3679471788715485 27.36979166666667  C 1.7637054821928775 26.710069444444436  2.150860344137655 25.915798611111107  2.5294117647058822 24.98697916666667  C 2.90796318527411 24.05815972222222  3.1660664265706284 23.263888888888886  3.303721488595438 22.60416666666667  C 3.3553421368547416 22.430555555555554  3.3596438575430176 22.170138888888886  3.316626650660264 21.82291666666667  C 3.2736094437775116 21.475694444444446  3.2693077230892356 21.232638888888886  3.303721488595438 21.09375  C 3.3553421368547416 20.90277777777778  3.501600640256103 20.65972222222222  3.74249699879952 20.36458333333333  C 3.983393357342937 20.069444444444446  4.129651860744298 19.869791666666664  4.181272509003602 19.765625  C 4.5426170468187275 19.140625  4.903961584633853 18.34201388888889  5.26530612244898 17.369791666666664  C 5.626650660264105 16.397569444444443  5.841736694677872 15.616319444444443  5.910564225690276 15.026041666666664  C 5.927771108443377 14.869791666666664  5.906262505002001 14.59201388888889  5.846038415366147 14.192708333333336  C 5.785814325730293 13.793402777777777  5.790116046418568 13.550347222222218  5.858943577430972 13.463541666666664  C 5.927771108443377 13.237847222222218  6.117046818727491 12.973090277777771  6.426770708283313 12.669270833333336  C 6.736494597839136 12.36545138888889  6.92577030812325 12.17013888888889  6.994597839135654 12.083333333333336  C 7.321528611444578 11.631944444444443  7.68717486994798 10.8984375  8.09153661464586 9.8828125  C 8.495898359343737 8.8671875  8.73249299719888 8.02951388888889  8.801320528211285 7.369791666666665  C 8.818527410964386 7.230902777777772  8.792717086834735 7.009548611111107  8.723889555822328 6.705729166666665  C 8.655062024809924 6.401909722222219  8.637855142056823 6.171875  8.672268907563025 6.015625  C 8.706682673069228 5.876736111111107  8.784113645458184 5.720486111111107  8.90456182472989 5.546875  C 9.0250100040016 5.373263888888888  9.179871948779512 5.173611111111107  9.369147659063625 4.947916666666665  C 9.55842336934774 4.722222222222219  9.7046818727491 4.539930555555554  9.807923169267706 4.401041666666665  C 9.945578231292519 4.192708333333335  10.087535014005603 3.9279513888888884  10.233793517406962 3.606770833333335  C 10.380052020808323 3.2855902777777724  10.509103641456583 2.981770833333335  10.62094837935174 2.6953125  C 10.7327931172469 2.408854166666665  10.87044817927171 2.096354166666665  11.03391356542617 1.7578125  C 11.197378951580633 1.4192708333333348  11.36514605842337 1.1414930555555536  11.53721488595438 0.9244791666666652  C 11.709283713485396 0.7074652777777724  11.937274909963987 0.5034722222222188  12.221188475390157 0.3125  C 12.505102040816329 0.12152777777777235  12.81482593037215 0.021701388888888395  13.150360144057624 0.013020833333334814  C 13.485894357743097 0.00434027777777235  13.894557823129253 0.052083333333334814  14.376350540216086 0.15625  L 14.350540216086436 0.234375  C 15.004401760704281 0.078125  15.443177270908365 0  15.66686674669868 0  L 35.308523409363744 0  C 36.58183273309324 0  37.56262505002001 0.48611111111110716  38.25090036014406 1.4583333333333348  C 38.93917567026811 2.4305555555555536  39.09403761504602 3.5590277777777724  38.71548619447779 4.84375  L 31.64345738295318 28.4375  C 31.024009603841534 30.503472222222218  30.40886354541817 31.8359375  29.798019207683076 32.434895833333336  C 29.187174869947984 33.033854166666664  28.081632653061224 33.333333333333336  26.481392557022808 33  L 4.052220888355342 33  C 3.587635054021609 33.333333333333336  3.2607042817126852 33.463541666666664  3.071428571428571 33.723958333333336  C 2.882152861144458 34.001736111111114  2.8735494197679072 34.375  3.0456182472989193 34.84375  C 3.458583433373349 36.05902777777778  4.697478991596639 36.666666666666664  6.762304921968787 36  L 30.585234093637453 36  C 31.084233693477394 36.666666666666664  31.566026410564227 36.53211805555556  32.03061224489796 36.263020833333336  C 32.49519807923169 35.993923611111114  32.79631852741097 35.63368055555556  32.93397358943577 35.182291666666664  L 40.67707082833133 9.479166666666664  C 40.79751900760304 9.097222222222218  40.840536214485795 8.602430555555554  40.80612244897959 7.994791666666665  Z M 15.40876350540216 7.5  L 14.866746698679473 9.166666666666664  C 14.797919167667066 9.392361111111107  14.815126050420169 9.587673611111107  14.918367346938775 9.752604166666664  C 15.021608643457382 9.917534722222218  15.193677470988398 10  15.434573829531812 10  L 31.127250900360146 10  C 31.35094037615046 10  31.570328131252502 9.917534722222218  31.785414165666264 9.752604166666664  C 32.00050020008003 9.587673611111107  32.14245698279312 9.392361111111107  32.21128451380552 9.166666666666664  L 32.75330132052821 7.5  C 32.82212885154062 7.274305555555554  32.80492196878752 7.078993055555554  32.70168067226891 6.9140625  C 32.5984393757503 6.749131944444442  32.426370548219296 6.666666666666665  32.18547418967587 7  L 16.492797118847538 7  C 16.26910764305722 6.666666666666665  16.04971988795518 6.749131944444442  15.834633853541416 6.9140625  C 15.619547819127652 7.078993055555554  15.477591036414568 7.274305555555554  15.40876350540216 7.5  Z M 13.266506602641057 14.166666666666664  L 12.724489795918368 15.833333333333336  C 12.655662264905963 16.05902777777778  12.672869147659064 16.25434027777778  12.776110444177672 16.419270833333336  C 12.87935174069628 16.58420138888889  13.05142056822729 16.666666666666664  13.29231692677071 17  L 28.984993997599037 17  C 29.208683473389357 16.666666666666664  29.4280712284914 16.58420138888889  29.64315726290516 16.419270833333336  C 29.858243297318932 16.25434027777778  30.000200080032016 16.05902777777778  30.06902761104442 15.833333333333336  L 30.611044417767104 14.166666666666664  C 30.679871948779514 13.940972222222218  30.66266506602641 13.745659722222218  30.559423769507806 13.580729166666664  C 30.456182472989195 13.41579861111111  30.284113645458188 13.333333333333336  30.043217286914764 14  L 14.350540216086436 14  C 14.12685074029612 13.333333333333336  13.90746298519408 13.41579861111111  13.692376950780313 13.580729166666664  C 13.477290916366549 13.745659722222218  13.335334133653463 13.940972222222218  13.266506602641057 14.166666666666664  Z " fill-rule="nonzero" fill="#fff2ee" stroke="none" fill-opacity="0" transform="matrix(1 0 0 1 659 1860 )" />
    <path d="M 40.80612244897959 7.994791666666665  C 41.45998399359745 8.255208333333336  41.967587034813924 8.628472222222218  42.32893157262905 9.114583333333336  C 43.0172068827531 10.104166666666664  43.172068827531014 11.223958333333336  42.793517406962785 12.473958333333336  L 35.69567827130852 36.067708333333336  C 35.3687474989996 37.17881944444444  34.71058423369348 38.111979166666664  33.72118847539016 38.8671875  C 32.73179271708684 39.622395833333336  31.677871148459385 40  30.559423769507806 40  L 6.736494597839136 40  C 5.41156462585034 40  4.133953581432574 39.53559027777778  2.9036614645858343 38.606770833333336  C 1.6733693477390958 37.677951388888886  0.8173269307723091 36.536458333333336  0.3355342136854742 35.182291666666664  C -0.07743097238895558 34.01909722222222  -0.09463785514205683 32.916666666666664  0.28391356542617047 31.875  C 0.28391356542617047 31.805555555555554  0.3097238895558223 31.571180555555554  0.36134453781512604 31.171875  C 0.4129651860744297 30.772569444444443  0.4473789515806323 30.45138888888889  0.4645858343337335 30.208333333333336  C 0.48179271708683474 30.069444444444446  0.4559823929571829 29.8828125  0.3871548619447779 29.6484375  C 0.318327330932373 29.4140625  0.29251700680272114 29.24479166666667  0.3097238895558223 29.140625  C 0.3441376550620248 28.94965277777778  0.4129651860744297 28.767361111111107  0.5162064825930373 28.59375  C 0.6194477791116446 28.420138888888886  0.7614045618247298 28.21614583333333  0.942076830732293 27.98177083333333  C 1.122749099639856 27.74739583333333  1.2647058823529411 27.54340277777778  1.3679471788715485 27.36979166666667  C 1.7637054821928775 26.710069444444436  2.150860344137655 25.915798611111107  2.5294117647058822 24.98697916666667  C 2.90796318527411 24.05815972222222  3.1660664265706284 23.263888888888886  3.303721488595438 22.60416666666667  C 3.3553421368547416 22.430555555555554  3.3596438575430176 22.170138888888886  3.316626650660264 21.82291666666667  C 3.2736094437775116 21.475694444444446  3.2693077230892356 21.232638888888886  3.303721488595438 21.09375  C 3.3553421368547416 20.90277777777778  3.501600640256103 20.65972222222222  3.74249699879952 20.36458333333333  C 3.983393357342937 20.069444444444446  4.129651860744298 19.869791666666664  4.181272509003602 19.765625  C 4.5426170468187275 19.140625  4.903961584633853 18.34201388888889  5.26530612244898 17.369791666666664  C 5.626650660264105 16.397569444444443  5.841736694677872 15.616319444444443  5.910564225690276 15.026041666666664  C 5.927771108443377 14.869791666666664  5.906262505002001 14.59201388888889  5.846038415366147 14.192708333333336  C 5.785814325730293 13.793402777777777  5.790116046418568 13.550347222222218  5.858943577430972 13.463541666666664  C 5.927771108443377 13.237847222222218  6.117046818727491 12.973090277777771  6.426770708283313 12.669270833333336  C 6.736494597839136 12.36545138888889  6.92577030812325 12.17013888888889  6.994597839135654 12.083333333333336  C 7.321528611444578 11.631944444444443  7.68717486994798 10.8984375  8.09153661464586 9.8828125  C 8.495898359343737 8.8671875  8.73249299719888 8.02951388888889  8.801320528211285 7.369791666666665  C 8.818527410964386 7.230902777777772  8.792717086834735 7.009548611111107  8.723889555822328 6.705729166666665  C 8.655062024809924 6.401909722222219  8.637855142056823 6.171875  8.672268907563025 6.015625  C 8.706682673069228 5.876736111111107  8.784113645458184 5.720486111111107  8.90456182472989 5.546875  C 9.0250100040016 5.373263888888888  9.179871948779512 5.173611111111107  9.369147659063625 4.947916666666665  C 9.55842336934774 4.722222222222219  9.7046818727491 4.539930555555554  9.807923169267706 4.401041666666665  C 9.945578231292519 4.192708333333335  10.087535014005603 3.9279513888888884  10.233793517406962 3.606770833333335  C 10.380052020808323 3.2855902777777724  10.509103641456583 2.981770833333335  10.62094837935174 2.6953125  C 10.7327931172469 2.408854166666665  10.87044817927171 2.096354166666665  11.03391356542617 1.7578125  C 11.197378951580633 1.4192708333333348  11.36514605842337 1.1414930555555536  11.53721488595438 0.9244791666666652  C 11.709283713485396 0.7074652777777724  11.937274909963987 0.5034722222222188  12.221188475390157 0.3125  C 12.505102040816329 0.12152777777777235  12.81482593037215 0.021701388888888395  13.150360144057624 0.013020833333334814  C 13.485894357743097 0.00434027777777235  13.894557823129253 0.052083333333334814  14.376350540216086 0.15625  L 14.350540216086436 0.234375  C 15.004401760704281 0.078125  15.443177270908365 0  15.66686674669868 0  L 35.308523409363744 0  C 36.58183273309324 0  37.56262505002001 0.48611111111110716  38.25090036014406 1.4583333333333348  C 38.93917567026811 2.4305555555555536  39.09403761504602 3.5590277777777724  38.71548619447779 4.84375  L 31.64345738295318 28.4375  C 31.024009603841534 30.503472222222218  30.40886354541817 31.8359375  29.798019207683076 32.434895833333336  C 29.187174869947984 33.033854166666664  28.081632653061224 33.333333333333336  26.481392557022808 33  L 4.052220888355342 33  C 3.587635054021609 33.333333333333336  3.2607042817126852 33.463541666666664  3.071428571428571 33.723958333333336  C 2.882152861144458 34.001736111111114  2.8735494197679072 34.375  3.0456182472989193 34.84375  C 3.458583433373349 36.05902777777778  4.697478991596639 36.666666666666664  6.762304921968787 36  L 30.585234093637453 36  C 31.084233693477394 36.666666666666664  31.566026410564227 36.53211805555556  32.03061224489796 36.263020833333336  C 32.49519807923169 35.993923611111114  32.79631852741097 35.63368055555556  32.93397358943577 35.182291666666664  L 40.67707082833133 9.479166666666664  C 40.79751900760304 9.097222222222218  40.840536214485795 8.602430555555554  40.80612244897959 7.994791666666665  Z " stroke-width="2" stroke="#ffffff" fill="none" transform="matrix(1 0 0 1 659 1860 )" mask="url(#clip10)" />
    <path d="M 15.40876350540216 7.5  L 14.866746698679473 9.166666666666664  C 14.797919167667066 9.392361111111107  14.815126050420169 9.587673611111107  14.918367346938775 9.752604166666664  C 15.021608643457382 9.917534722222218  15.193677470988398 10  15.434573829531812 10  L 31.127250900360146 10  C 31.35094037615046 10  31.570328131252502 9.917534722222218  31.785414165666264 9.752604166666664  C 32.00050020008003 9.587673611111107  32.14245698279312 9.392361111111107  32.21128451380552 9.166666666666664  L 32.75330132052821 7.5  C 32.82212885154062 7.274305555555554  32.80492196878752 7.078993055555554  32.70168067226891 6.9140625  C 32.5984393757503 6.749131944444442  32.426370548219296 6.666666666666665  32.18547418967587 7  L 16.492797118847538 7  C 16.26910764305722 6.666666666666665  16.04971988795518 6.749131944444442  15.834633853541416 6.9140625  C 15.619547819127652 7.078993055555554  15.477591036414568 7.274305555555554  15.40876350540216 7.5  Z " stroke-width="2" stroke="#ffffff" fill="none" transform="matrix(1 0 0 1 659 1860 )" mask="url(#clip10)" />
    <path d="M 13.266506602641057 14.166666666666664  L 12.724489795918368 15.833333333333336  C 12.655662264905963 16.05902777777778  12.672869147659064 16.25434027777778  12.776110444177672 16.419270833333336  C 12.87935174069628 16.58420138888889  13.05142056822729 16.666666666666664  13.29231692677071 17  L 28.984993997599037 17  C 29.208683473389357 16.666666666666664  29.4280712284914 16.58420138888889  29.64315726290516 16.419270833333336  C 29.858243297318932 16.25434027777778  30.000200080032016 16.05902777777778  30.06902761104442 15.833333333333336  L 30.611044417767104 14.166666666666664  C 30.679871948779514 13.940972222222218  30.66266506602641 13.745659722222218  30.559423769507806 13.580729166666664  C 30.456182472989195 13.41579861111111  30.284113645458188 13.333333333333336  30.043217286914764 14  L 14.350540216086436 14  C 14.12685074029612 13.333333333333336  13.90746298519408 13.41579861111111  13.692376950780313 13.580729166666664  C 13.477290916366549 13.745659722222218  13.335334133653463 13.940972222222218  13.266506602641057 14.166666666666664  Z " stroke-width="2" stroke="#ffffff" fill="none" transform="matrix(1 0 0 1 659 1860 )" mask="url(#clip10)" />
  </g>
</svg>