<?xml version="1.0" encoding="utf-8"?>
<svg version="1.1" xmlns:xlink="http://www.w3.org/1999/xlink" width="40px" height="40px" xmlns="http://www.w3.org/2000/svg">
  <g transform="matrix(1 0 0 1 -1108 -10 )">
    <path d="M 16 36  C 16 33.79  14.21 32  12 32  C 9.79 32  8.02 33.79  8.02 36  C 8.02 38.21  9.79 40  12 40  C 14.21 40  16 38.21  16 36  Z M 6.529999999999999 0  L 0 0  L 0 4  L 4 4  L 11.190000000000001 19.17  L 8.490000000000002 24.07  C 8.180000000000001 24.65  8.000000000000002 25.300000000000004  8.000000000000002 26  C 8.000000000000002 28.21  9.790000000000003 30  12.000000000000002 30  L 36 30  L 36 26  L 12.85 26  C 12.57 26  12.349999999999998 25.78  12.349999999999998 25.5  C 12.349999999999998 25.41  12.37 25.33  12.41 25.26  L 14.2 22  L 29.1 22  C 30.6 22  31.910000000000004 21.17  32.6 19.94  L 39.75 6.960000000000001  C 39.91 6.6800000000000015  40 6.350000000000001  40 6  C 40 4.890000000000001  39.1 4  38 4  L 8.43 4  L 6.529999999999999 0  Z M 36 36  C 36 33.79  34.21 32  32 32  C 29.79 32  28.02 33.79  28.02 36  C 28.02 38.21  29.79 40  32 40  C 34.21 40  36 38.21  36 36  Z " fill-rule="nonzero" fill="#fefefe" stroke="none" transform="matrix(1 0 0 1 1108 10 )" />
  </g>
</svg>