<?xml version="1.0" encoding="utf-8"?>
<svg version="1.1" xmlns:xlink="http://www.w3.org/1999/xlink" width="34px" height="40px" xmlns="http://www.w3.org/2000/svg">
  <defs>
    <mask fill="white" id="clip11">
      <path d="M 3.08125 0  L 30.918750000000003 0  C 31.326041666666672 0  31.715625000000003 0.0793126239259756  32.0875 0.2379378717779268  C 32.671875 0.4670632297862909  33.13671875 0.828376294337958  33.48203125 1.3218770654329148  C 33.82734375 1.8153778365278672  34 2.361753690240138  34 2.9610046265697276  L 34 37.038995373430275  C 34 37.638246309759865  33.82734375 38.18462216347213  33.48203125 38.678122934567085  C 33.13671875 39.17162370566204  32.671875 39.5329367702137  32.0875 39.76206212822207  C 31.75104166666667 39.90306234853492  31.361458333333335 39.97356245869134  30.918750000000003 39.97356245869134  C 30.06875 39.97356245869134  29.333854166666672 39.69156201806565  28.714062499999997 39.12756113681428  L 17 27.91804362194316  L 5.285937499999999 39.12756113681428  C 4.6484375 39.70918704560476  3.913541666666667 40  3.08125 40  C 2.673958333333333 40  2.284375 39.92068737607403  1.9125 39.76206212822207  C 1.328125 39.5329367702137  0.86328125 39.17162370566204  0.51796875 38.678122934567085  C 0.17265625 38.18462216347213  0 37.638246309759865  0 37.038995373430275  L 0 2.9610046265697276  C 0 2.361753690240138  0.17265625 1.8153778365278672  0.51796875 1.3218770654329148  C 0.86328125 0.828376294337958  1.328125 0.4670632297862909  1.9125 0.2379378717779268  C 2.284375 0.0793126239259756  2.673958333333333 0  3.08125 0  Z " fill-rule="evenodd" />
    </mask>
  </defs>
  <g transform="matrix(1 0 0 1 -934 -1860 )">
    <path d="M 3.08125 0  L 30.918750000000003 0  C 31.326041666666672 0  31.715625000000003 0.0793126239259756  32.0875 0.2379378717779268  C 32.671875 0.4670632297862909  33.13671875 0.828376294337958  33.48203125 1.3218770654329148  C 33.82734375 1.8153778365278672  34 2.361753690240138  34 2.9610046265697276  L 34 37.038995373430275  C 34 37.638246309759865  33.82734375 38.18462216347213  33.48203125 38.678122934567085  C 33.13671875 39.17162370566204  32.671875 39.5329367702137  32.0875 39.76206212822207  C 31.75104166666667 39.90306234853492  31.361458333333335 39.97356245869134  30.918750000000003 39.97356245869134  C 30.06875 39.97356245869134  29.333854166666672 39.69156201806565  28.714062499999997 39.12756113681428  L 17 27.91804362194316  L 5.285937499999999 39.12756113681428  C 4.6484375 39.70918704560476  3.913541666666667 40  3.08125 40  C 2.673958333333333 40  2.284375 39.92068737607403  1.9125 39.76206212822207  C 1.328125 39.5329367702137  0.86328125 39.17162370566204  0.51796875 38.678122934567085  C 0.17265625 38.18462216347213  0 37.638246309759865  0 37.038995373430275  L 0 2.9610046265697276  C 0 2.361753690240138  0.17265625 1.8153778365278672  0.51796875 1.3218770654329148  C 0.86328125 0.828376294337958  1.328125 0.4670632297862909  1.9125 0.2379378717779268  C 2.284375 0.0793126239259756  2.673958333333333 0  3.08125 0  Z " fill-rule="nonzero" fill="#000000" stroke="none" fill-opacity="0" transform="matrix(1 0 0 1 934 1860 )" />
    <path d="M 3.08125 0  L 30.918750000000003 0  C 31.326041666666672 0  31.715625000000003 0.0793126239259756  32.0875 0.2379378717779268  C 32.671875 0.4670632297862909  33.13671875 0.828376294337958  33.48203125 1.3218770654329148  C 33.82734375 1.8153778365278672  34 2.361753690240138  34 2.9610046265697276  L 34 37.038995373430275  C 34 37.638246309759865  33.82734375 38.18462216347213  33.48203125 38.678122934567085  C 33.13671875 39.17162370566204  32.671875 39.5329367702137  32.0875 39.76206212822207  C 31.75104166666667 39.90306234853492  31.361458333333335 39.97356245869134  30.918750000000003 39.97356245869134  C 30.06875 39.97356245869134  29.333854166666672 39.69156201806565  28.714062499999997 39.12756113681428  L 17 27.91804362194316  L 5.285937499999999 39.12756113681428  C 4.6484375 39.70918704560476  3.913541666666667 40  3.08125 40  C 2.673958333333333 40  2.284375 39.92068737607403  1.9125 39.76206212822207  C 1.328125 39.5329367702137  0.86328125 39.17162370566204  0.51796875 38.678122934567085  C 0.17265625 38.18462216347213  0 37.638246309759865  0 37.038995373430275  L 0 2.9610046265697276  C 0 2.361753690240138  0.17265625 1.8153778365278672  0.51796875 1.3218770654329148  C 0.86328125 0.828376294337958  1.328125 0.4670632297862909  1.9125 0.2379378717779268  C 2.284375 0.0793126239259756  2.673958333333333 0  3.08125 0  Z " stroke-width="2" stroke="#ffffff" fill="none" transform="matrix(1 0 0 1 934 1860 )" mask="url(#clip11)" />
  </g>
</svg>