<?xml version="1.0" encoding="utf-8"?>
<svg version="1.1" xmlns:xlink="http://www.w3.org/1999/xlink" width="40px" height="40px" xmlns="http://www.w3.org/2000/svg">
  <defs>
    <mask fill="white" id="clip8">
      <path d="M 39.40182054616385 16.4889466840052  L 35.812743823146945 20  L 39.40182054616385 23.5110533159948  C 39.92197659297789 23.99653229302124  40.095361941915904 24.60338101430429  39.92197659297789 25.331599479843952  C 39.713914174252274 26.04247941048981  39.26311226701344 26.48461205028175  38.56957087126138 26.657997399219767  L 33.68010403120936 27.906371911573473  L 35.058517555266576 32.74382314694408  C 35.2665799739922 33.45470307758994  35.101863892501086 34.061551798873  34.56436931079324 34.56436931079324  C 34.061551798873 35.101863892501086  33.45470307758995 35.2665799739922  32.74382314694408 35.058517555266576  L 27.906371911573473 33.68010403120936  L 26.657997399219763 38.56957087126138  C 26.484612050281754 39.26311226701344  26.04247941048982 39.713914174252274  25.331599479843952 39.92197659297789  C 25.123537061118334 39.95665366276549  24.958820979627223 39.9739921976593  24.837451235370615 39.9739921976593  C 24.29995665366277 39.9739921976593  23.85782401387083 39.783268313827485  23.5110533159948 39.40182054616385  L 20 35.812743823146945  L 16.4889466840052 39.40182054616385  C 16.00346770697876 39.92197659297789  15.39661898569571 40.095361941915904  14.668400520156046 39.92197659297789  C 13.957520589510189 39.731252709146084  13.515387949718251 39.280450801907236  13.342002600780233 38.56957087126138  L 12.093628088426529 33.68010403120936  L 7.2561768530559165 35.058517555266576  C 6.545296922410056 35.2665799739922  5.938448201127006 35.101863892501086  5.435630689206762 34.56436931079324  C 4.8981361074989165 34.061551798873  4.733420026007803 33.45470307758994  4.94148244473342 32.74382314694408  L 6.319895968790638 27.906371911573473  L 1.4304291287386217 26.657997399219767  C 0.7368877329865626 26.48461205028175  0.28608582574772434 26.04247941048981  0.07802340702210664 25.331599479843952  C -0.0953619419159081 24.60338101430429  0.07802340702210661 23.99653229302124  0.5981794538361508 23.5110533159948  L 4.187256176853056 20  L 0.5981794538361508 16.4889466840052  C 0.07802340702210661 16.003467706978757  -0.0953619419159081 15.39661898569571  0.07802340702210664 14.668400520156046  C 0.28608582574772434 13.957520589510185  0.7368877329865626 13.51538794971825  1.4304291287386217 13.342002600780237  L 6.319895968790638 12.093628088426529  L 4.94148244473342 7.256176853055916  C 4.733420026007803 6.545296922410051  4.8981361074989165 5.938448201127002  5.435630689206762 5.435630689206761  C 5.938448201127006 4.898136107498914  6.545296922410056 4.733420026007802  7.2561768530559165 4.9414824447334205  L 12.093628088426529 6.319895968790639  L 13.342002600780233 1.4304291287386217  C 13.515387949718251 0.7195491980927571  13.957520589510189 0.27741655830082035  14.668400520156046 0.10403120936280708  C 15.37928045080191 -0.10403120936280708  15.986129172084961 0.06068487212830487  16.4889466840052 0.5981794538361518  L 20 4.213263979193758  L 23.5110533159948 0.5981794538361518  C 24.013870827915042 0.07802340702210753  24.620719549198093 -0.0866926744690133  25.331599479843952 0.10403120936280708  C 26.04247941048982 0.27741655830082035  26.484612050281754 0.7195491980927571  26.657997399219763 1.4304291287386217  L 27.906371911573473 6.319895968790639  L 32.74382314694408 4.9414824447334205  C 33.45470307758995 4.733420026007802  34.061551798873 4.898136107498914  34.56436931079324 5.435630689206761  C 35.101863892501086 5.938448201127002  35.2665799739922 6.545296922410051  35.058517555266576 7.256176853055916  L 33.68010403120936 12.093628088426529  L 38.56957087126138 13.342002600780237  C 39.26311226701344 13.51538794971825  39.713914174252274 13.957520589510185  39.92197659297789 14.668400520156046  C 40.095361941915904 15.39661898569571  39.92197659297789 16.003467706978757  39.40182054616385 16.4889466840052  Z " fill-rule="evenodd" />
    </mask>
  </defs>
  <g transform="matrix(1 0 0 1 -115 -1860 )">
    <path d="M 39.40182054616385 16.4889466840052  L 35.812743823146945 20  L 39.40182054616385 23.5110533159948  C 39.92197659297789 23.99653229302124  40.095361941915904 24.60338101430429  39.92197659297789 25.331599479843952  C 39.713914174252274 26.04247941048981  39.26311226701344 26.48461205028175  38.56957087126138 26.657997399219767  L 33.68010403120936 27.906371911573473  L 35.058517555266576 32.74382314694408  C 35.2665799739922 33.45470307758994  35.101863892501086 34.061551798873  34.56436931079324 34.56436931079324  C 34.061551798873 35.101863892501086  33.45470307758995 35.2665799739922  32.74382314694408 35.058517555266576  L 27.906371911573473 33.68010403120936  L 26.657997399219763 38.56957087126138  C 26.484612050281754 39.26311226701344  26.04247941048982 39.713914174252274  25.331599479843952 39.92197659297789  C 25.123537061118334 39.95665366276549  24.958820979627223 39.9739921976593  24.837451235370615 39.9739921976593  C 24.29995665366277 39.9739921976593  23.85782401387083 39.783268313827485  23.5110533159948 39.40182054616385  L 20 35.812743823146945  L 16.4889466840052 39.40182054616385  C 16.00346770697876 39.92197659297789  15.39661898569571 40.095361941915904  14.668400520156046 39.92197659297789  C 13.957520589510189 39.731252709146084  13.515387949718251 39.280450801907236  13.342002600780233 38.56957087126138  L 12.093628088426529 33.68010403120936  L 7.2561768530559165 35.058517555266576  C 6.545296922410056 35.2665799739922  5.938448201127006 35.101863892501086  5.435630689206762 34.56436931079324  C 4.8981361074989165 34.061551798873  4.733420026007803 33.45470307758994  4.94148244473342 32.74382314694408  L 6.319895968790638 27.906371911573473  L 1.4304291287386217 26.657997399219767  C 0.7368877329865626 26.48461205028175  0.28608582574772434 26.04247941048981  0.07802340702210664 25.331599479843952  C -0.0953619419159081 24.60338101430429  0.07802340702210661 23.99653229302124  0.5981794538361508 23.5110533159948  L 4.187256176853056 20  L 0.5981794538361508 16.4889466840052  C 0.07802340702210661 16.003467706978757  -0.0953619419159081 15.39661898569571  0.07802340702210664 14.668400520156046  C 0.28608582574772434 13.957520589510185  0.7368877329865626 13.51538794971825  1.4304291287386217 13.342002600780237  L 6.319895968790638 12.093628088426529  L 4.94148244473342 7.256176853055916  C 4.733420026007803 6.545296922410051  4.8981361074989165 5.938448201127002  5.435630689206762 5.435630689206761  C 5.938448201127006 4.898136107498914  6.545296922410056 4.733420026007802  7.2561768530559165 4.9414824447334205  L 12.093628088426529 6.319895968790639  L 13.342002600780233 1.4304291287386217  C 13.515387949718251 0.7195491980927571  13.957520589510189 0.27741655830082035  14.668400520156046 0.10403120936280708  C 15.37928045080191 -0.10403120936280708  15.986129172084961 0.06068487212830487  16.4889466840052 0.5981794538361518  L 20 4.213263979193758  L 23.5110533159948 0.5981794538361518  C 24.013870827915042 0.07802340702210753  24.620719549198093 -0.0866926744690133  25.331599479843952 0.10403120936280708  C 26.04247941048982 0.27741655830082035  26.484612050281754 0.7195491980927571  26.657997399219763 1.4304291287386217  L 27.906371911573473 6.319895968790639  L 32.74382314694408 4.9414824447334205  C 33.45470307758995 4.733420026007802  34.061551798873 4.898136107498914  34.56436931079324 5.435630689206761  C 35.101863892501086 5.938448201127002  35.2665799739922 6.545296922410051  35.058517555266576 7.256176853055916  L 33.68010403120936 12.093628088426529  L 38.56957087126138 13.342002600780237  C 39.26311226701344 13.51538794971825  39.713914174252274 13.957520589510185  39.92197659297789 14.668400520156046  C 40.095361941915904 15.39661898569571  39.92197659297789 16.003467706978757  39.40182054616385 16.4889466840052  Z " fill-rule="nonzero" fill="#fff2ee" stroke="none" fill-opacity="0" transform="matrix(1 0 0 1 115 1860 )" />
    <path d="M 39.40182054616385 16.4889466840052  L 35.812743823146945 20  L 39.40182054616385 23.5110533159948  C 39.92197659297789 23.99653229302124  40.095361941915904 24.60338101430429  39.92197659297789 25.331599479843952  C 39.713914174252274 26.04247941048981  39.26311226701344 26.48461205028175  38.56957087126138 26.657997399219767  L 33.68010403120936 27.906371911573473  L 35.058517555266576 32.74382314694408  C 35.2665799739922 33.45470307758994  35.101863892501086 34.061551798873  34.56436931079324 34.56436931079324  C 34.061551798873 35.101863892501086  33.45470307758995 35.2665799739922  32.74382314694408 35.058517555266576  L 27.906371911573473 33.68010403120936  L 26.657997399219763 38.56957087126138  C 26.484612050281754 39.26311226701344  26.04247941048982 39.713914174252274  25.331599479843952 39.92197659297789  C 25.123537061118334 39.95665366276549  24.958820979627223 39.9739921976593  24.837451235370615 39.9739921976593  C 24.29995665366277 39.9739921976593  23.85782401387083 39.783268313827485  23.5110533159948 39.40182054616385  L 20 35.812743823146945  L 16.4889466840052 39.40182054616385  C 16.00346770697876 39.92197659297789  15.39661898569571 40.095361941915904  14.668400520156046 39.92197659297789  C 13.957520589510189 39.731252709146084  13.515387949718251 39.280450801907236  13.342002600780233 38.56957087126138  L 12.093628088426529 33.68010403120936  L 7.2561768530559165 35.058517555266576  C 6.545296922410056 35.2665799739922  5.938448201127006 35.101863892501086  5.435630689206762 34.56436931079324  C 4.8981361074989165 34.061551798873  4.733420026007803 33.45470307758994  4.94148244473342 32.74382314694408  L 6.319895968790638 27.906371911573473  L 1.4304291287386217 26.657997399219767  C 0.7368877329865626 26.48461205028175  0.28608582574772434 26.04247941048981  0.07802340702210664 25.331599479843952  C -0.0953619419159081 24.60338101430429  0.07802340702210661 23.99653229302124  0.5981794538361508 23.5110533159948  L 4.187256176853056 20  L 0.5981794538361508 16.4889466840052  C 0.07802340702210661 16.003467706978757  -0.0953619419159081 15.39661898569571  0.07802340702210664 14.668400520156046  C 0.28608582574772434 13.957520589510185  0.7368877329865626 13.51538794971825  1.4304291287386217 13.342002600780237  L 6.319895968790638 12.093628088426529  L 4.94148244473342 7.256176853055916  C 4.733420026007803 6.545296922410051  4.8981361074989165 5.938448201127002  5.435630689206762 5.435630689206761  C 5.938448201127006 4.898136107498914  6.545296922410056 4.733420026007802  7.2561768530559165 4.9414824447334205  L 12.093628088426529 6.319895968790639  L 13.342002600780233 1.4304291287386217  C 13.515387949718251 0.7195491980927571  13.957520589510189 0.27741655830082035  14.668400520156046 0.10403120936280708  C 15.37928045080191 -0.10403120936280708  15.986129172084961 0.06068487212830487  16.4889466840052 0.5981794538361518  L 20 4.213263979193758  L 23.5110533159948 0.5981794538361518  C 24.013870827915042 0.07802340702210753  24.620719549198093 -0.0866926744690133  25.331599479843952 0.10403120936280708  C 26.04247941048982 0.27741655830082035  26.484612050281754 0.7195491980927571  26.657997399219763 1.4304291287386217  L 27.906371911573473 6.319895968790639  L 32.74382314694408 4.9414824447334205  C 33.45470307758995 4.733420026007802  34.061551798873 4.898136107498914  34.56436931079324 5.435630689206761  C 35.101863892501086 5.938448201127002  35.2665799739922 6.545296922410051  35.058517555266576 7.256176853055916  L 33.68010403120936 12.093628088426529  L 38.56957087126138 13.342002600780237  C 39.26311226701344 13.51538794971825  39.713914174252274 13.957520589510185  39.92197659297789 14.668400520156046  C 40.095361941915904 15.39661898569571  39.92197659297789 16.003467706978757  39.40182054616385 16.4889466840052  Z " stroke-width="2" stroke="#ffffff" fill="none" transform="matrix(1 0 0 1 115 1860 )" mask="url(#clip8)" />
  </g>
</svg>