<?xml version="1.0" encoding="utf-8"?>
<svg version="1.1" xmlns:xlink="http://www.w3.org/1999/xlink" width="40px" height="40px" xmlns="http://www.w3.org/2000/svg">
  <g transform="matrix(1 0 0 1 -292 -10 )">
    <path d="M 39.53879310344827 21.768518518518523  C 39.53879310344827 20.981481481481485  39.25 20.236111111111114  38.72844827586207 19.675925925925924  L 22.073275862068968 1.796296296296296  L 20.95689655172414 0.5972222222222232  C 20.427395368612594 0.03225204196027281  19.57260463138741 0.032252041960275445  19.043103448275865 0.5972222222222224  L 1.271551724137931 19.675925925925924  C 0.7449838950633957 20.239295517316002  0.4527419706862025 21.007322954509018  0.4612068965517242 21.805555555555554  C 0.478448275862069 23.435185185185187  1.7413793103448278 24.73611111111111  3.2586206896551726 24.73611111111111  L 5 24.73611111111111  L 5 39.81481481481482  L 35 39.81481481481482  L 35 24.73611111111111  L 36.780172413793096 24.73611111111111  C 37.51724137931034 24.73611111111111  38.21120689655173 24.425925925925924  38.732758620689644 23.865740740740733  C 39.251483484893924 23.310383981060117  39.54173679323459 22.55517350142626  39.53879310344827 21.768518518518523  Z M 22.413793103448274 27.037037037037038  L 22.413793103448274 36.48148148148148  L 17.586206896551722 36.48148148148148  L 17.586206896551722 27.037037037037038  L 22.413793103448274 27.037037037037038  Z M 35.94827586206896 21.402777777777775  L 31.80603448275862 21.402777777777775  L 31.80603448275862 36.48148148148148  L 25 36.48148148148148  L 25 25.925925925925924  C 25.17241379310345 24.902777777777775  24.40086206896552 24.074074074074076  23.448275862068964 24.074074074074076  L 16.551724137931036 24.074074074074076  C 15.59913793103448 24.074074074074076  14.827586206896552 24.902777777777775  15 25.925925925925924  L 15 36.48148148148148  L 8.193965517241379 36.48148148148148  L 8.193965517241379 21.402777777777775  L 4.05603448275862 21.402777777777775  L 20.004310344827587 4.287037037037035  L 21 5.35648148148148  L 35.94827586206896 21.402777777777775  Z " fill-rule="nonzero" fill="#ffffff" stroke="none" transform="matrix(1 0 0 1 292 10 )" />
  </g>
</svg>